<svg id="レイヤー_2" data-name="レイヤー 2" xmlns="http://www.w3.org/2000/svg" viewBox="0 0 358.74 358.93"><defs><style>.cls-1{fill:#ffffff;}</style></defs><title>loading</title><path class="cls-1" d="M0,179.95A179.66,179.66,0,0,1,112.23,13.44c27-7.84,63.11-10.24,98,9.84,35.66,20.43,41.57,54.13,34.88,81.33s-22.93,52-66.36,53.87c-40.11-3.69-68.58-25.72-71.89-65.3C31.69,121.27,2.55,194.14,20.1,262.59A178.77,178.77,0,0,1,0,179.95Z"/><path class="cls-1" d="M269.6,334.84A179.65,179.65,0,0,1,69.29,320.89C49,301.4,28.86,271.36,28.82,231.12c-0.13-41.1,26.09-63.06,53-70.88s56.51-6.14,79.84,30.54c16.86,36.58,12,72.25-20.6,94.91,61.89,51,139.57,39.84,190.08-9.59A178.73,178.73,0,0,1,269.6,334.84Z"/><path class="cls-1" d="M268.93,23.91A179.63,179.63,0,0,1,357,204.36c-6.73,27.33-22.68,59.77-57.51,79.94C264,305,231.85,293.23,211.63,273.84S178.06,228,198.16,189.43c23.25-32.89,56.57-46.53,92.5-29.61C303.91,80.7,255.38,19,187.32,0A178.73,178.73,0,0,1,268.93,23.91Z"/></svg>
