<svg id="レイヤー_5" data-name="レイヤー 5" xmlns="http://www.w3.org/2000/svg" viewBox="0 0 464.04 261.45"><defs><style>.cls-1{fill:#FFB11B;}</style></defs><title>moon</title><path class="cls-1" d="M116.29 123.52a126.16 126.16 0 0 0 .72 12.73h84.05c28.2 0 41.91 10.89 41.91 33.29 0 7.2-2.66 30.67-36.84 30.67h-9.39c-10.36 0-23.06 3.79-23.6 4-9.07 2.57-9.07 2.67-9.07 7.64.12 1.36 3.54 7.24 17 7.24h137a123.51 123.51 0 1 0-201.78-95.57z"/><path class="cls-1" d="M0 143.46l3.41 7h195.27c21.83 0 26.41 10.39 26.41 19.1 0 8.19-6.51 16.48-19 16.48h-5a26.76 26.76 0 0 1-5.67 7h10.67c26.74 0 29.63-16.41 29.63-23.46 0-18.28-10.38-26.08-34.7-26.08H0z"/><path class="cls-1" d="M7 157.85l3.41 7h159.71c14.86 0 15.29 10.51 15.29 11.71 0 8.53-10.05 12.13-12.07 12.77l-4.09 1.2-.66.18c-9.42 2.67-20.11 5.69-20.11 21.17 0 8 4.24 21.37 32.61 21.37h270.59l-3.06-7H181.09c-18.31 0-24.23-9.7-24.23-14.4 0-10.13 4.64-11.9 14.28-14.63l4.31-1.27c12.94-4.08 21-11.52 21-19.42 0-4.38-1.75-18.69-24.3-18.69H7z"/><path class="cls-1" d="M84.73 231.06q0 1.5.11 3.06c1.92 27.82 35.09 27.45 49.25 27.3H464l-3.06-7h-321c-20.48.23-45.31-3.49-47.27-22.5a24.67 24.67 0 0 1-.14-2.65c0-15.21 14-23.29 22.9-26.88a44.44 44.44 0 0 1 4-4.46c-22.68 3.6-34.7 14.92-34.7 33.13z"/><path class="cls-1" d="M13.82 171.71l3.41 7h108.12c5.47 0 9.83 2.67 11.12 6.81s-.75 8.48-5.47 11.74c-11.67 8.05-17.16 19.47-14.33 29.81 3.41 12.44 17.8 20.17 37.56 20.17h303.6l-3.06-7H154.26c-15.7 0-26.62-5.62-29.2-15-2.36-8.61 2.67-18.06 12.8-24.07 12.07-7.15 11.45-14.88 10.63-17.87-1.93-7-10.19-11.57-21.06-11.57H13.82z"/></svg>
