<svg viewBox="0 0 399.37 386.81" xmlns="http://www.w3.org/2000/svg"><defs><style>.cls-1{fill:#111;}.cls-1,.cls-2{stroke:#fff;stroke-linecap:round;stroke-linejoin:round;stroke-width:2px;}.cls-2{fill:none;}</style></defs><title>sakura</title><path class="cls-1" d="M271.83,106.24C277.6,99.38,280.28,1,199.87,1S121.8,96.32,127.68,106.24l72,99.24Z"/><path class="cls-1" d="M127.6,106.2c-4.75-7.6-97.48-40.56-122.33,35.92S71.79,245.82,83,243.3l116.64-37.82Z"/><path class="cls-1" d="M83,243.36c-8.7,2.17-68.69,80.18-3.64,127.44s119.19-31.22,120.26-42.71l0.08-122.61Z"/><path class="cls-1" d="M199.64,328.18c-0.63,8.94,55,90.11,120.08,42.84s7.13-123-3.46-127.58l-116.59-38Z"/><path class="cls-1" d="M316.36,243.44c8.31,3.36,102.7-24.49,77.85-101s-114.78-44.79-122.4-36.14l-72.13,99.15Z"/><circle class="cls-1" cx="199.68" cy="205.48" r="40"/><line class="cls-2" x1="199.68" y1="165.48" x2="199.68" y2="125.78"/><line class="cls-2" x1="161.64" y1="193.12" x2="123.88" y2="180.85"/><line class="cls-2" x1="176.17" y1="237.84" x2="152.83" y2="269.96"/><line class="cls-2" x1="223.19" y1="237.84" x2="246.53" y2="269.97"/><line class="cls-2" x1="237.73" y1="193.12" x2="275.49" y2="180.85"/></svg>
