<svg xmlns="http://www.w3.org/2000/svg" viewBox="0 0 128.1 88.1"><style>.st0{fill:#1C305C;} .st1{fill:#FFFFFF;} .st2{fill:#415282;} .st3{fill:#1C305C;stroke:#FFFFFF;stroke-width:0.2074;} .st4{fill:#415282;stroke:#FFFFFF;stroke-width:0.2074;}</style><path class="st0" d="M125.1 65.2c-.9-.7-1.7-1.4-2.7-1.9-.1 0-.2-.1-.2-.1-.1-.1-.2-.3-.2-.4-.2-.1-.5-.3-.8-.4-.4-.2-.7-.3-1.1-.5-.3-.1-.6-.2-.8-.3-.2-.1-.4-.1-.6-.2l-.2.2-.3-.2c-.7-.5-1.5-.6-2.4-.6-.6 0-1.3-.1-1.9-.3-.9.3-1.8.3-2.7.2-.6 0-1.2-.1-1.8 0-.6.1-1.2.2-1.7.2-.6.1-1.1.1-1.6.2s-1 .2-1.4.3c-.4.1-.9.2-1.4.3-.1.1-.2.1-.3.2-.1 0-.1.1-.2.1l-.1.1h-.1c-.8.2-1.7.6-2.5.9-1.2.5-2.5.9-3.7 1.2-.1.1-.2.1-.3.1-.3-.1-.5-.4-.7-.8 0-.1-.1-.1-.1-.2-1.4-1.6-2.9-3.1-5-2.7h-.2l-.4.1-.1-.5c0-.2-.1-.4-.1-.7l-.1-.4.4-.1c1.6-.4 3-1.5 3.8-3v-.3c0-.3.2-.5.5-.6.1-.3.1-.5.2-.8.1-.6.2-1.1.6-1.6l.1-.1H95.3c.2 0 .8-.1 1.1.4 0 0 .2.3.1.3l-.3.2v.2c0 .2 0 .4-.2.6.1.1.1.3.1.5v.1c-.2.6-.1 1.3.1 1.5 0 .1.1.1.2.1 1.2.2 3.2.3 3.7-1 1-2.3.4-4.8-1.3-6.6-.8-.7-2.2-1.3-3.4-1.2-.6.1-1.1.4-1.4.9l-.2.2-.3-.1c-.2-.1-.4-.1-.6-.2-.6-.2-1.3-.5-1.9-.4l-.4.1v-.4c0-.3-.1-.6-.2-.9 0-.2-.1-.5-.1-.7V46c.2-1.2 0-2.4-.8-3.4-.8-1.1-2.1-1.8-3.4-1.9h-.2c-1.6-.2-2.9-.4-4.4 0-.2 0-.4-.1-.5-.1l-.1-.1h-.2l-.1-.1c-.4-.5-.7-.9-1-1.4-.5-.9-1-1.6-1.8-2-.3 0-.6-.2-.8-.3-.1 0-.2-.1-.2-.1-3.5-1.3-6.7.7-9.8 3.1l-.1.1h-.7c-2-1.1-3.1-3.3-2.9-5.6v-.1l.1-.1c1.4-1.4 1.5-3.6 1.1-5.2 0-.4-.2-.8-.5-1.2-.2-.4-.4-.7-.5-1.1-.6-1.4-1.6-2.6-2.9-3.5-.5-.2-.8-.4-1.2-.7-.1-.1-.3-.2-.4-.3h-.5l-.1-.1s-.1-.1-.2-.1c-.2-.1-.5-.2-.7-.6v-.1c-.6-2.9-3.3-4.3-5.7-5.5-1 0-3.3-.2-4.5-1.5-.5-.6-.8-1.3-.7-2.1-1-2.5-4-3.3-6.3-2.6-2 .6-3.9 1.7-5.7 2.7-.4.2-.8.1-1.1.1h-.6c-.4-.1-.7-.4-1-.7-.2-.2-.5-.5-.6-.5l-1.2-.3-1.2-.3c-.2 0-.2 0-.3.1l-.3-.5h-.2c-.2 0-.4 0-.6-.1-.3.1-.6.1-.9.1h-.4c-.4.4-.9.4-1.2.4-.3 0-.5 0-.6.2l-.2.1-.2-.1c-.6-.3-1-.8-1.4-1.2-.4-.4-.8-.8-1.2-1C20 8.2 18.5 8 17 7.1c-.5-.2-.7-.7-1-1.1-.2-.3-.3-.6-.5-.8-.8-.4-1.5-.7-2.1-.6-1.2 0-2.3.6-3.3 1.6-1.1 1.1-1.6 2.6-1.5 4v.2l-.1.1c-.6.6-1 1.3-1.4 2.1-.5 1.4-.5 3-.1 4.4.3 1.4 1.5 2.6 3.4 3.6.4-.1.8-.2 1.2-.2 1.3-.2 2.5-.4 3.4-1.5.1-.2.2-.4.3-.5.1-.1.2-.3.3-.5.1-.5.3-.9.4-1.4.4-1.1.7-2.1.6-3.3-.1-.1-.1-.2-.2-.3 0-.1-.1-.2-.1-.2l-.1-.1v-.2-.5l.1-.2h.1v-.2h.4c.3 0 .5.3.6.4.1 0 .2.1.3.1l.1.1h.2l.6.3c.1.1.3.2.5.3.5.3.8.8.8 1.2v.2l-.3.7c-1 2.1-1.9 4-1.5 6.1.4 1.9 1.1 3.5 2.4 5.3.8 1.3 2.1 2 3.5 2.6l.6.3c.2-.1.6-.2.8-.4H26l.6-.3c.1 0 .2-.1.3-.1v-.2l.1-.1c.3-.4.8-.7 1.2-.9.5-.2.9-.4 1-.9v-.1l.1-.1.1-.1c.1-.1.2-.3.4-.4.1-.3.2-.6.4-.8.2-.3.3-.5.2-.8-.4-.9-.9-1.7-1.7-2.5-1.4-1-2.7.2-3.4 1l-.1.1H25s-.2.1-.3.1c-.2.1-.4.1-.5.1-.3 0-.4-.1-.5-.2h-.1l-.1-.1c-1.9-1.3-.8-3.6-.3-4.5.6-1 1.7-1.7 3.3-2.2 3.1-.7 5.4 1.9 6 4.8.1.1.2.2.3.2.1.1.3.1.4.3l.1.1v.2c0 .1 0 .3.1.4 0 .1.1.3.1.5.4.9 1.3 1.4 2.3 2 .7.3 1.2.2 1.9 0 .4-.1.9-.2 1.4-.2h.2c.7.2 1.2.8 1.5 1.7.7 1.8.2 3.7-1.5 5.8-1.2 1.4-2.7 2.5-4.6 3.7h.3l.6.3-.6.5c-1.2.8-1.4 1.2-1.4 1.3l.1.2-.2.2c-.6.5-1.2.8-1.9 1.2.1.1.1.2.2.4.1.1.1.3.2.4l.2.4-.4.2c-.3.1-.5.3-.6.6l-.1.2h-.2c-.7.1-1.2.5-1.5 1-.3.7-.2 1.5.3 2.4v.1c.2.1.9.1 1.7-.3l.4.7v.1c-.1.1-.2.4-.6.4-1.2 0-2.4.6-3.3 1.2l-.1.1h-.1c-.2 0-.5 0-.6-.2-.1-.1-.2-.2-.2-.4v.1c-.4-2.6-1.8-5.1-4.2-7-.5-.3-1.1-.5-1.6-.7-.1 0-.3-.1-.4-.1-.3-.1-.6 0-.9 0-.5 0-1 .1-1.6-.2-.3-.1-.8.1-1.2.3-.2.1-.4.2-.6.2-.4.4-.8.8-1.5 1-.2.1-.3.4-.5.7-.2.4-.4.8-.8 1.1l-.1.1H13l-.1-.2c-.4-.7-1.1-1.2-1.7-1.2-2.1-.4-4.2.2-5.6 1.7-1.2 1.3-1.7 2.9-1.3 4.6.8 2.1 3.3 3 5.4 2.6.7-.1.9-.7 1.1-1.7v-.1c.2-.6-.3-1.1-1-1.7-.1-.1-.3-.2-.4-.4l-.3-.3.3-.3c.6-.5 1.1-.8 1.7-.7 1.1.1 1.9 1.1 2.8 2 .5.6.9 1.1 1.4 1.4.7.3 1.5.4 2.6.2.9-.3 1.6-1 2.4-1.9.2-.2.3-.4.5-.5l.3-.3.3.3s.1.1.2.1c.1.1.3.2.4.5.4 1.1.7 2.5.2 4-.4.9-.9 1.6-1.4 2.4h.2c.2 0 .5 0 .6.2.1.1.2.2.2.4v.2c-.2.6-.4 1.1-.7 1.6-.5 1.1-.9 2.1-1.2 3.3-.1.5-.1.9-.1 1.4 0 .7-.1 1.4-.3 2.1 0 0 0 .1.1.1l.1.1V62.2c0 2.4.5 4.9 1.2 6.9 0 .1.1.2.1.4.2.5.4 1.1.7 1.6l.1.1v.4c.1.2.2.4.4.6.2.3.3.5.4.8.5 1.7 2 3.1 4.3 4.3.8.2 1.7.6 2.5 1 1.5.5 2.9.4 4.6.2V78l.5.2.6.2c3.5 1 6.8 2 9.9.8.2-.2.4-.3.7-.5.5-.3 1.1-.6 1.5-1.1l.2-.2.3.1c2.2 1 2.9 1 3 .9v-.1c-.1-.3 0-.5.1-.7.4-.5 1.2-.5 2.4-.4h.5c.4 0 .5-.1.5-.9 0-.2.1-.4.1-.7.2-.8 1-.7 1.9-.6.5.1 1.2.2 2 .1l.8-.1-.4.7c-.7 1-1 2.1-.8 3.2.2.6.6 1.1 1.2 1.3l.1-.1H59.4c.2 0 .8-.1 1.1.4v.2c0 .5-.2 1.2-.5 1.7-.6 1-1.3 1.9-2.4 2.8-.7.5-1.4.9-2.1 1.2l-.6.3c-1.7.6-3.6.9-5.5.7 1.8.6 3.9.1 5.9-.3h.1c.1-.1.2-.4.6-.4.2 0 .3 0 .5-.1.2 0 .4-.1.6-.1.3-.2.7-.3 1-.5.9-.4 1.8-.8 2.5-1.4 0-.4.2-.6.6-.6.4 0 .5 0 .8-.2.2-.1.4-.3.6-.5.4-.3.9-.7 1.4-1 .3-.2.6-.3.8-.5.6-.4 1.2-.8 1.9-1.1.1-.3.3-.5.6-.5.1 0 .2-.1.3-.1.1 0 .3-.1.4-.1.3-.1.6-.3.9-.5.5-.3 1.1-.7 1.8-.9.1-.1.2-.1.3-.3.1-.2.3-.4.6-.5l.3-.1.2.2c.1-.1.3-.1.4-.1.7-.7 1.6-1 2.4-1.3.6-.2 1.3-.5 1.9-.9l.3-.2.2.2c5.5-2 10.2-2.4 14.1-1 .3.1.7.3 1.1.4.3.2.7.3 1 .4h.1l.1.1c.1.1.2.2.2.3.1.1.1.2.2.2.2 0 .3.1.4.1l.1.1h.1l.1.1c.4.3.8.8 1.2 1.2.4.4.7.8 1.1 1.1.1 0 .2.1.3.2.5.3.6.3.6.2l.3-.4.3.3v-.6l.5.5v-.4c-.2-.1-.3-.2-.5-.3.6-.7.8-1.7 1.6-2 1.2-.4 1.9 0 3-.4h.1l-3.2-2.4h.4l.1.2c.4.6.9.9 1.5 1.3.4.3.8.6 1.1.9h-.1.1c.5.4.9.8 1.4.9.4 0 .8-.1 1.3-.2-.1-.1-.1-.2-.2-.3-.1-.2-.3-.5-.4-.7-.2-.3-.6-.5-.9-.8-.4-.2-.8-.5-1-.9-.1 0-.1 0-.1.1l-.3.3-.3-.3c-.2-.2-.3-.4-.3-.5h-.2c-.1 0-.2 0-.2-.1v.2l-.7-.7c-.1-.1-.2-.2-.2-.3h-.6l-.1-.3c-.1-.3-.2-.3-.7-.5h-.1l-.2.2-.3-.1c-.3-.2-.6-.3-.9-.6l-.1.1-.3-.1c-.2-.1-.5-.2-.7-.2-.4-.1-.8-.1-1.2-.5v.5l-.8-.9-.2-.2-.1-.1v-.2c0-.5.2-.8.6-.8h.5c4.4-1.8 9.6-2.5 14.8-2.1.4.1.8.1 1.2.2.4.1.9.1 1.3.2.5.3 1.1.5 1.6.8 1.1.5 2.2 1 3.3 1.7.6.3 1.4.4 1.6.2 0 0 .1-.1.1-.4-.1-1.1-1.1-1.5-2.4-1.8.7-.1 1.3-.5 1.8-1.1l.1.1c.4.3.8.6 1.2 1h.4l.1.1c.5.4 1.2.6 1.8.6-.1-.1-.1-.2-.2-.3-.3-.4-.7-.9-.8-1.6 0-.1-.4-.5-.6-.6-.1-.1-.2-.2-.4-.3l-.3-.3.3-.3.2-.2.2-.2.3.2c.6.4 1.3.6 2 .8.4.1.8.3 1.2.4.4.1.8.3 1.2.4-.1-.4-.5-.7-.8-1z"/><path class="st1" d="M36.4 46.1l-.2.2c.1 0 .2-.1.2-.2zM19.2 53.6c0-.1.1-.1.1-.2-.1.1-.1.1-.1.2zM124.7 66c1 .4 2.3.6 3.3.8-2.1-1-3.5-2.9-5.6-3.9-.2 0-.2-.4-.2-.4-.6-.4-1.5-.6-2.1-1-.6-.2-1-.4-1.7-.6l-.2.2c-1.5-1-3.1-.4-4.6-1-1.5.6-2.9 0-4.6.2-1.2.2-2.3.2-3.3.4s-1.9.4-2.9.6c-.2.2-.4.2-.6.4-2.1.6-4.1 1.7-6.2 2.1-.2.2-.4-.4-.6-.8-1.5-1.7-3.1-3.3-5.4-2.9-2.1.6-4.2 1.2-6 2.3-.6.4-.4 1.2-1 1.7-.6-.8-1.5-1.5-2.5-1.9-1-.4-2.3-.6-3.5-.4-1 .4-1.9.8-2.9 1.5-.4.2-.2 1-.8.8-2.3-1.2-2.5-4.2-.8-6.2.2-.4-.2-1.2 0-1.5 1.5-1.2 3.1-1.7 3.7-3.3 1.2-2.7-.4-5.6-2.3-7.7-2.5-.4-5 .2-6.4 2.5-.2.6-.6 1-1.2 1.2-1.2.6-1.9 1.9-2.7 2.9-.2.2-.4 0-.4-.2-.2-2.3-1.9-3.9-3.7-4.8-.4-.2-.8-.3-1.3-.4l-2.8 7c.2-.1.3-.2.5-.3.2 0 .4 0 .4.2 0 .4-.2.6-.4.8-.2.6-.4 1.5-.2 2.1-2.5 2.1-3.7 5.4-3.3 8.7.6 3.9 3.7 7.1 7.7 7.5l.2-.2c0 .4.6.2.6.4-2.1 1.7-3.9 3.5-3.5 6.2.2.8.8 1.5 1.7 1.7l.2-.2c.2 0 .6-.2.8.2 0 .4-.2 1-.4 1.5-.6 1-1.2 1.9-2.3 2.7-.8.6-1.9 1-2.7 1.5-1.7.6-3.6.8-5.5.6-.6-.2-1.2-.4-1.9-.4 2.1 2.3 5.4 1.5 8.1.8.2 0 .2-.4.4-.4.4 0 .8-.2 1.2-.2 1.2-.6 2.7-1 3.7-2.1 0-.2 0-.4.2-.4.4 0 .6 0 1-.2.6-.4 1.2-1 2.1-1.5 1-.6 1.9-1.2 2.9-1.7 0 0 0-.4.2-.4s.6-.2.8-.2c.8-.4 1.7-1 2.7-1.5.4-.2.4-.6.8-.8l.2.2c.2-.2.4-.2.6-.2 1.2-1.2 2.9-1.2 4.4-2.3l.4.3c4.4-1.7 9.5-2.7 14.1-1 .6.2 1.5.6 2.1.8.2.2.4.6.6.6.2 0 .4.2.6.2.8.6 1.5 1.7 2.3 2.3.4.2 1 .8 1.5.2l.2.2c.2 0 .4 0 .4-.2l.2.2c.2-.4.6-.2.8-.2-.4 0-.8-.6-.4-1-.6-.2-.8-.6-1.2-.8-.4-.2-.2-1-.8-1.4-.4-.2-.6-.4-1.2-.2-.2 0-.4-.2-.4-.4l.2-.2c-.6-.6-1.7-.8-2.5-1.5l-.2.2c-.4.2-.2-.4-.6-.4 0 .2 0 .4-.2.4-.4-.8-1-.6-1.9-.4-.2 0-.2-.2-.2-.4-.2-.2-.2.2-.4.2s-.2-.2-.2-.4c-.2 0-.6 0-.8-.2h-1.2c-1 0-2.3 0-3.3.2-.6 0-1.2-.2-1.9.4-.2.2-.4 0-.4-.2-.4.4-.8.2-1 .6l-.2-.2c-1.2.2-2.3.6-3.5.8-.6.2-1 .4-1.7.6-.2 0-.2.4-.4.4-.4 0-.8.2-1.2.4-.2 0-.4-.2-.4-.2.4-.6 1-.8 1.5-1.2h.4l.6-.6.2.2c.6-.4 1.5-.6 2.1-1 .2 0 .6-.2 1-.2 1.5-.6 2.9-.8 4.4-1.2.2-.2.4-.2.6-.4.6 0 1.5 0 2.1-.2.8-.2 1.7.4 2.3-.2 1.7.8 3.5.4 5.4 1 1.9.4 3.5 1 5.2 1.7.2 0 .2.4.4.4h.4c.4.6 1 1 1.7 1.5 1 .6 1.7 1.7 2.7 1.9.6 0 1.2-.2 1.9-.4-.2-.4-.6-1-.8-1.5-.6-.8-1.7-1-2.1-1.9-.2 0-.4 0-.6.2-.4-.4-.2-.8-.6-1 0 .2 0 .4-.2.4s-.2-.4-.2-.6c-.2-.2-.4 0-.4.2-.2-.2-.2-.4-.4-.4h-.4c-.2-.6-.6-.6-1.2-.8l-.8-.1c-.4-.2-.8-.4-1-.8l-.2.2c-.8-.4-1.7 0-2.1-1-.2-.2-.4 0-.4.2l-.2-.2c0-.2 0-.4.2-.4h.6c4.6-1.9 9.7-2.5 14.7-2.1.8.2 1.7.2 2.5.4 1.7.8 3.3 1.5 5 2.5.8.4 2.5.6 2.3-.6-.2-1.9-2.5-2.1-3.9-2.5-1.5-.6-2.9-1-4.6-1-2.3-.4-4.8-.2-7.1-.2-1.9.2-3.9.6-5.8 1-2.3.8-4.6 1.4-6.8 2.3 0-.4-.6-.2-.6-.4 1-.8 2.3-1.5 3.7-1.7.2 0 .2-.4.4-.4.4 0 .8-.2 1.2-.2.6-.4 1.2-.6 1.9-.8 2.1-.4 4.1-1 6.2-1.2 4.1 0 8.7-.8 12.4 1.7h.4c.8.8 1.7 1.2 2.5 2.1h.4c.8.6 1.9.8 2.7.6-.4-.8-1-1.2-1.2-2.3 0-.4-.6-.8-1-1.2l.2-.2c1.1.4 2.3.6 3.3 1z"/><path class="st1" d="M54 46.7c-.4.2-1 .4-1.5.6-1.2 1-2.3 2.1-3.3 3.5h-.4c-.8-.8-1.9-.8-2.9-1.2l-.2.2-.2-.2c-.6.4-1.2.6-2.1.8-.4-.8-.4-1.4-1.2-2-.6-.4-1.5-.6-2.1-1-.4 0-.8-.4-1.5-.4-.2 0-.2-.2-.2-.4-.6 0-1.2.2-1.7-.4 0 .2 0 .4-.2.4s-.4 0-.4-.2h-.2c-.4-.2-.7-.5-1-.8-1-.8-2.1-.8-3.3-.8-.2 0-.2.4-.4.4-1.2 0-2.5.6-3.5 1.2-.2 0-.4 0-.4-.2-.4-2.9-2.1-5.4-4.4-7.3-.6-.4-1.5-.6-2.1-.8-.8-.2-1.7.2-2.5-.2-.6-.2-1.5.4-2.1.6-.4.4-.8.8-1.5 1-.6.4-.6 1.5-1.2 1.9h-.4c-.4-.8-1.2-1.5-2.1-1.5-3.9-.8-8.3 2.5-7.3 6.8.8 2.3 3.5 3.3 5.8 2.9 1-.2 1.2-1.2 1.5-2.1.4-1-.8-1.9-1.5-2.5 2.3-2.1 3.7 1.7 5.4 2.7.8.4 1.9.4 2.9.2 1.2-.4 2.1-1.5 3.1-2.5.2.2.4.2.4.4.4 1.2.6 2.5.2 3.7-.6 1.4-1.6 2.6-2.4 3.8.2-.3.6-.3.9-.3l.6-.6c.2 0 .4 0 .4.2-.6 1.7-1.5 3.1-1.9 5-.2 1.2 0 2.3-.4 3.5 0 .2.2.4.2.4 0 2.5.4 5.2 1.2 7.5.2.6.4 1.5.8 2.1v.4c.2.4.6 1 .8 1.5.6 2.1 2.5 3.5 4.6 4.6.8.2 1.7.6 2.5 1 1.7.6 3.3.4 5.2.2v-.6c-.4-.4-1.5-.8-2.1-.4-.4.2-.4-.6-.6-.6-.6 0-1.2.4-1.9.2-2.9-1-4.2-3.9-5.4-6.6l.2-.2c-.4 0-.2-.4-.4-.6-.2-.6-.4-1-.6-1.7-.2-.8-.4-1.7-.6-2.5l.2-.2c0-.2-.2-.2-.2-.4 0-.4-.2-.8.2-1l.1-.2c0-.6-.2-1 .2-1.7l-.2-.2c.2-1.2.4-2.3.6-3.3 0-.2.4-.2.4-.4 0-.4 0-.6.2-1 1.5-2.3 2.5-4.6 4.8-6.2 2.3-1.7 4.8-3.1 7.7-2.5 1.7.2 3.3.6 5 1.7.4 0 .8.2 1.2.2.2 0 .4.2.2.4-1.2.8-2.3 1.7-3.3 2.9-.2.4-.4.6-.6 1-.6 1.2-.8 2.5-1 3.9 0 .2.2.2.4.2.4-.4 1.2-.6 1.5-1.2.4-1.9 1.5-3.7 3.1-4.8h.4c.8-.8 1.7-1.7 2.9-1.5.2 0 .2.2.2.4.8-.4 1.5.2 2.1.8h.3c.6.6 1.5 1.5 1.2 2.3-.2.8-.6 1.7-.8 2.7-.2.4-.4.6-.8.8-.4.2-.6.4-1 .6-.6.2-1.5.2-1.9-.6-.2-.8.2-1.9 1-2.3.4-.2.8-.2 1-.6.2-.6-.4-1-.8-1-.8.2-1.5.6-2.3 1-2.1.6-3.7 3.1-3.5 5.4.2.4.6.4 1 .4-.1-.8-.1-1.8.7-2.4l.2.2c-.6 1-.4 2.1.2 2.9.2.4.4-.6.8-1 0-.2-.2-.2-.2-.4 0-.4-.2-1 .2-1.2 0 0 .4.2.4.4v.4c.4.4.6.8.6 1 .2.6-.4 1.2-.6 1.9 0 .2.2.2.2.4.2.4-.6 0-.4.4 0 .2.4.2.4.4l-.2.2c0 .6.2 1.2-.2 1.9l.2.2c0 .2-.2.4-.2.4.2.8.2 1.7.6 2.3.2.4.4 1 .6 1.5 1.9 2.5 4.4 6 7.7 4.6-.8 0-1.5-.4-2.1-1h-.4c-.8-1-2.1-1.5-2.3-2.7-.6.2-.6-.4-.8-.8l.2-.2c-.2 0-.2-.2-.2-.4h-.4c-.1-.2-.1-.4-.1-.6.2-.2.2-.2.2-.4-.2 0-.4 0-.4-.2-.2-.6-.4-1.2-.6-1.9-.2-.6.6-1.2 0-1.9.6-.6.4-1.5.6-2.3 0-.2.2-.2.4-.2.2-.6.2-1.5.6-2.1 1-1.2 2.5-1.5 3.3-2.7.2.2.4.6.8.8h.4c.2 0 .4-.2.4-.4-.6-2.1.9-4 2.6-4.9l2.8-7c-1.3-.3-2.7-.2-4.1.1z"/><path class="st2" d="M35.5 74.3c-7.6-2.5-8.3-10.6-5-15.3 3.3-4.7 8.5-6.2 8.5-6.2-.4-1.7-5.5-1.3-8.1.8-1 .8-3.5 1.5-2.7.2.8-1.2-.3-3-2.3-.2-5.1 7.4-2.8 17.2-1.1 18.4 1.7 1.2 3.1 1.9 4.4 1.5 1.2-.4 2-.6 6.3.8zM47.4 77.9c-2.3-1-6.6-2.5-7.1-9.1-.4-6.6 1.2-10.2 2.5-9.7 1.2.4 1.9 1.5 3.1 1.2 1.2-.2 3.9-1.2 4.6-2.7.6-1.5 2.9-3.9 4.4-3.9 1.5 0 3.5-.4 2.5-.2s-1.5 2.3-.8 3.1c.6.8-4.4 10.6-.8 12.7 3.5 2.1 7.5 3.3 5.8 3.7-1.7.4-1 2.5-3.1 2.7-2.1.2-3.5-.6-3.7.2-.2.8 0 1.9-1 1.9s-2.9-.2-2.7.6c0 .7-1 .7-3.7-.5zM39.1 21.8c1.4-.8 5-1.7 6.4-.2 1.5 1.5 4.4 7.3 3.1 8.9-1.2 1.7-5.2 7.5-6.6 8.1-1.5.6-2.7.6-4.6-.2-1.9-.8-3.3-.4-4.1-.8-.8-.4 1.2-1.9 3.3-3.1 2.1-1.2 3.4-3.9 4.1-5.4 2.5-4.6-4.5-5.6-1.6-7.3z"/><path class="st1" d="M4.8 2.6c2 2 .4 4.4-1.5 5-.7.3-1.4-.5-2.2-.7C.1 6.3-.1 5 .1 4c.4-1.2 1.5-2.3 2.7-2.3.8.2 1.4.2 2 .9zM9.2.5c.5.4.8.6 1 1 0 .8-1.2 1.9-1.9 1.2-.1-.1-.6-.1-.8-.6-.2-.6-.6-1-.4-1.7.4-.7 1.5-.3 2.1.1zM27 .3c.6.2 1.2.4 1.7 1 .2.8.6 1.7.4 2.5-.4.8-1.7 1.2-2.5.4H26c-1-.6-2.1-2.1-1.2-3.3.6-.6 1.4-.8 2.2-.6zM22.3 4.8c.2 0 .2-.2.4-.2.6.2 1.2.2 1.5.8.2.6 0 1.5-.2 2.1-.4 1-1.7 0-2.5.4 1 .6 1.7 1.7 2.7 2.3.6-.4 1.2 0 1.9-.6.4-.2 1 .2 1.5-.2.2.2.4.2.6.2.2-.2.4-.2.6-.2.8.2 1.7.4 2.5.6.6.2 1 1 1.7 1.2.4 0 .8.2 1.2 0 1.9-1 3.7-2.1 5.8-2.7 2.7-.8 5.8.2 6.8 2.9-.2 2.7 2.9 3.3 5 3.3 2.5 1.2 5.4 2.7 6 5.8.2.4.6.4.8.6h.4c.6.4 1 .8 1.7 1 1.5 1 2.5 2.3 3.1 3.7.2.8 1 1.7 1 2.5.4 1.9.2 4.1-1.2 5.6-.2 2.1.8 4.1 2.7 5.2h.4c2.9-2.3 6.4-4.6 10.2-3.1.4.2.6.4 1 .4 1.5.6 1.9 2.3 2.9 3.5.2 0 .4.2.6.2 1.7-.4 3.1-.2 4.8 0 2.7.2 5.2 2.9 4.6 5.8-.2.8-1 .6-1.5-.2-.4.2-.4.6-.4 1 0 .2-.2.2-.4.4-.4-.6-.2-1.5-.4-2.1-.4-.8-.8-1.5-1.5-2.1-.8-.6-1.5-1-2.5-1.2-1-.2-2.3 0-3.1.6-1.5.8-3.7 1.2-4.6-.6v-.4c-1-1.7-2.5-3.1-4.4-2.9-2.3.2-3.9 1.9-5.6 3.3v.4c0 .2-.2.2-.4.4 0-.2-.2-.2-.4-.2-1.7.8-3.5 1.2-5.4.8-.2.3-.2-.1-.2-.1.6 0 1-.4 1.7-.6 1-.2 2.1-.4 2.7-1.5.2-.4-.2-.6-.4-.6-.6 0-.8.6-1.5.8-.8.4-1.7 0-2.5.2-.6.2-1 .4-1.7.8-.2.2-.4.8-.8 1-1.2.7-2.5-.1-3.1-1.1-1-2.1-1-5.2 1.2-6.4h.4c.6-.6 1.7-1.2 2.1-2.1.8-1.9.8-4.1-.8-5.8 0-.2-.2-.4-.2-.6-.4-.4-.6-1-1-1.5 1 0 1.9.8 2.5 1.7.4.8.8 1.5 1 2.3.2.8-.2 1.7.2 2.5-.4.2-.2.6-.2.8l.2.2c.8-1 1.5-2.1 2.1-3.3.2-.6.2-1.2 0-1.9-.2-.4-.6-.8-.8-1.2-.6-1-1.5-1.7-2.3-2.3-.8-.4-1.7-.2-2.1-1.2v-.4c0-.2-.2-.2-.4-.4 0 .2-.2.2-.4.2-.4-.8-.4-1.9-.8-2.9s-1.2-1.9-2.1-2.5c-1.7-1.2-3.7-1-5.6-1.7-.2-.2-.4-.2-.6-.4h-.6c-.4-.2-.6-.6-.8-1-.2-.6-.2-1.2-.6-1.7-.2-.2-.6.2-.8-.2 0 .2-.2.2-.4.2-.6-.2-.8-.8-1.5-1.2-.8-.4-1.7-.6-2.5-.8-1.2 0-2.3.6-3.5 1-.2.2-.6.4-.8.6-1.2.6-2.7.4-3.9.6-.6-.6-1.2-.6-2.1-.8-1.7-.2-3.5.2-5 1.2-1.5 1.2-3.1 2.7-3.3 4.8-1.7 2.9 0 6.8 2.7 8.5.8.6 2.3 1.2 2.9.2-1.2-.6-2.7-1.2-2.1-2.9-1.2-.4-2.1-1.2-2.5-2.5-.2-1.5 0-2.9.8-3.9 1.2-1.2 2.7-2.1 4.4-2.7 1.2-.2 2.7-.4 3.9 0 1.2.6 2.7 1.2 3.5 2.7 1.7-.4 3.7-1 4.8.2.4.6-.4 1.2-1 1V18c-.6-.8-1.7-.4-2.3-.2-1.2.6-2.3 2.1-1.9 3.5.4 1 1 1.9 2.1 2.3.8.2 1.9 0 2.5-.8.2-.6-.4-1-.8-1.5-.6-.2-1.2-.2-1.7.4-.2-.2-.4-.2-.6-.2.2-.2-.2-.4 0-.6.2-.4.6-.6 1-.8 1.5-.2 2.5.4 3.7.8 0 0 .2-.2.4-.2.2.2.2.2.4.2 1-.6 2.7-1 3.7-.2h.4c1.5 1 2.1 2.5 2.5 4.1.2.6 1.5.4 1.5.8.4 1 .4 2.3 0 3.3-.4 1.7-.6 3.1-1.5 4.6-1.7 2.7-4.4 4.6-7.3 5.8l-.2-.2c.2-.4.4-.8.8-1 2.3-1.2 3.9-2.7 5.6-4.8.2-.4.4-.6.6-1 0-.4.6-.8 0-1.2-1.9 3.3-4.8 6-8.3 7.7-.2 0-.4-.2-.4-.2 4.4-3.9 10.4-8.5 7.7-14.9-.4-1-1-2.3-2.3-2.5-1-.2-1.9 0-2.7.6-.2 0-.6.2-.8-.2-.6.4-.4 1-.6 1.7 3.5.8 2.9 5.2 2.1 7.7-.4.8-.8 1.9-1.7 2.5-1.5 1-2.7 2.1-4.4 2.9-.2.2-.6.2-.8.2-.4 0-.2-.8-.6-.6-.8.4-1.9 1.2-2.9 1v-.6c0-.2.2-.2.4-.2l.2.2c2.5-1.2 4.8-2.7 6.6-4.8 1.2-1.5 2.3-3.3 1.5-5.4-.2-.6-.6-1.2-1.2-1.5-1.2 0-2.3.8-3.5.2-1-.6-2.1-1.2-2.5-2.3 0-.4-.2-.6-.2-1-.2-.2-.6-.2-.8-.6-.6-2.7-2.7-5.2-5.6-4.6-1.2.4-2.5 1-3.1 2.1-.6 1.2-1.2 2.9.2 3.9.2 0 .2.2.4.2s.6-.2.8-.2c1-1.2 2.5-2.1 3.9-1 .8.8 1.5 1.7 1.9 2.7.2.8-.6 1.2-.6 2.1-.4 0-.4.2-.6.4-.4 1-1.7 1-2.3 1.9 0 .2 0 .4-.2.4-.4.2-.8.2-1 .6 0-.2-.2-.2-.4-.2-.4.2-.8.4-1 .4-1.7-.8-3.3-1.5-4.4-3.1-1.2-1.7-2.1-3.3-2.5-5.4-.4-2.5.8-4.8 1.9-7.1 0-.2-.2-.6-.6-.8-.4-.2-.6-.4-1-.6-.2 0-.4-.2-.6-.2-.2 0-.2-.4-.4-.4s-.2.4-.2.6c.2.2.2.4.4.6.2 1.9-.6 3.3-1 5-.2.4-.4.6-.6 1-1.2 1.7-3.3 1.5-5 1.9-1.7-.8-3.3-2.1-3.7-3.9-.4-1.5-.4-3.1 0-4.6.4-.8.8-1.7 1.5-2.3-.2-2.9 2.3-6 5.2-6 .5-.4 1.3 0 2.1.4.6.6.8 1.7 1.5 1.9 1.5.8 2.9 1 4.4 1.2l.2-.2c-.8-.6-.8-1.5-.6-2.3.1-.4.5-.6 1.2-.6z"/><path class="st1" d="M35.8 7.5c0 .7-.2 2.1-1.2 1.9-.8-.2-1.7-.6-1.9-1.5-.2-.8-.2-1.7.6-2.1.8-.6 1.9-.6 2.5.4 0 .2 0 .6-.2.8-.1.1.2.3.2.5zM54.4 22.7c.2 1.4-.6 2.3-1.7 3.1h-.4c.6-1.5.6-3.3.2-4.8-.8-1.9-2.7-3.1-4.6-3.9l-.4.4c-.2 0-.2-.2-.2-.2.8-.4 1.9-.6 2.9-.4 2.8.6 3.8 3.3 4.2 5.8zM17.7 31.8c0 .4-.2.6-.4.6-.4 0-.8.4-1.2 0-.4 0-.6.6-.8.8h-.4c-.5-.2-.9-.4-.9-.6-.4-.8-.8-1.9-.2-2.7.8-.8 2.1-.8 3.1-.6 1.2.2.8 1.5.8 2.5zM26.4 37c-.1.4-.6.4-1 .4-.6-.2-1-.8-1.2-1.2-.2-1.2-.2-2.7.8-3.1 1-.6 2.7-.4 3.3.8.2 1-.2 2.1-1 2.7l-.3-.2c-.2.4-.4 0-.6.6zM30.8 42.4c-.4-.8-.2-2.1.8-2.5.8-.2 1.7.4 2.1 1 .2.4.4 1 0 1.5h-.4s-.2.2-.2.4l.2.2c-.2.6-1 .4-1.7.4-.4-.2-.6-.6-.8-1zM36.4 43.4c-.9 0-1.7-1-1.5-1.9.2-.6.6-1.2 1.2-1.7.8-.4 2.1 0 2.5.8.4 1.2-1 1.9-1.7 2.7-.1.1-.3.1-.5.1zM14.4 53.2c-.6.3-1 .4-1.7.2-.4-.2-.8-.2-1-.4-.2-.2-.4-.8-.4-1 .2-.8.8-1.7 1.7-2.1.4 0 .8.2 1.2.2 1 .6 1.2 2.4.2 3.1zM42.8 72.7c-.9-1.8-1.7-3.9-.8-6 1.7.2 1.5 2.5 1.5 3.7 0 .2.4.2.4.4v.8l.6.6c.2.4.4.6.6 1v.4c.8.6 1.2 1 1.9 1.9h.4c.2.2.6.4.8.6.8.2 1.7.6 2.5 1-2.5.4-5-.8-6.8-2.7V74c0-.2-.2-.2-.4-.2-.1-.3-.5-.7-.7-1.1zM52.3 73.9c-.4-.2-.6-.4-1.2-.4-.2 0-.2-.2-.4-.4.2 0 .4-.2.2-.4-.4-.4-1-.8-1.5-1.5l.2-.2c-.4-.6-.6-1.2-.2-1.9l-.2-.2c.8-.6 1.9 0 2.3.8.2.8.2 1.9 1 2.5.6.4 1 1 1.9 1.2 1.5.4 2.9.4 4.4.6-2.1.7-4.4.7-6.5-.1zM78.3 46.5c-.2.1-.4 0-.4-.2-.2-.4.4-.4.6-.6v-.4c1.2-1.5 3.5-1.7 5.2-1 1.2.6 2.7 1 3.3 2.3.2.6.2 1.5.4 2.1.6.6 1.5.8 2.1 1.7.2.4.4.6.6 1 .6 1.5 0 2.9-.6 4.2l.2.2c1.2-1 2.1-2.5 1.2-4.1 0-.2-.2-.2-.4-.2h.6c.2 1.2 1 2.5.2 3.5-1 1-2.5 1.9-3.5 2.9l-.2-.2-.2.2c-.6-.2-1-.6-1-1.2.6.2 1.2 0 1.5-.6v-1.2c-.4-1-1.9-.6-2.5.2-.6 1-.4 2.5.8 3.1 1 .4 2.1.2 3.1.2.8-.2 1.9-.4 2.5-1.2.2-.4.4-.4.6-.8.6-1.7 1.5-3.1 1.2-5-.2-.6-.4-1-.6-1.7-.6-.8-1.5-.6-2.3-.6-.2 0-.4-.4-.8-.4 1-1.2 2.5-.4 3.7 0 1.2-1.9 3.9-1 5.4.2 1.9 1.9 2.5 4.6 1.5 7.1-.6 1.5-2.7 1.5-4.1 1.2-.8 0-.8-1.2-.6-2.1 0-.2-.2-.4-.2-.6.4-.2 0-.8.4-1-.2-.4-.6-.2-.8-.2-.6.6-.4 1.7-.8 2.5 0 0-.4 0-.4.2v.4c-1.2 2.5-3.9 3.9-6.8 3.3-.8-.2-1.9-.2-2.5-1-.4-.6-.4-1-.6-1.7l.2-.2c-.4-.2-.2-.6-.2-.8.2-.8.2-1.7.6-2.5 1-1.5 3.3-1.2 4.6 0 .6-1.2-.4-3.3-1.9-3.1-1.2 1.2-2.7 2.3-4.1 3.1-1 .6-2.1 1-3.3.8-1.2-.2-2.1-1.5-1.7-2.9.2-.8.4-1.9 1.2-2.5 1.2-.6 3.3-1 4.1.4v.4c-.2 0-.4 0-.4.2-.6-.4-1.2-.2-1.9-.2-.6.2-1 .6-1.2 1.2-.2.6 0 1.5.6 1.7 1.9.4 3.5-1.2 3.9-3.1l-.3-.5c.6-1.5-.6-2.7-1.7-3.5-1.6-.8-2.9.4-4.3 1zM78.5 59.8c-.2.1-.2 0-.4 0s-.2-.4-.4-.4h-.4c-.8-.4-.8-1.2-.4-1.9.6-.8 1.7-1.2 2.7-1 .6.2 1.5.8 1.2 1.7-.5 1-1.5 1.2-2.3 1.6zM83.7 35.3c-.2 0-.2 0-.4-.2-.2 0-.4 0-.4.2 0-.2-.2-.4-.4-.2-.4.4 0 1.7-1 1.2-1-.4-1-1.7-.8-2.5.2-.6.8-.8 1.5-.8l.2.2c0-.2.2-.2.4-.2.4.2 1.2.2 1.5.8v.4c.4.2.4.6.6 1 0 0-.2.4-.4.2-.4-.1-.6-.1-.8-.1zM97.2 39.7c.8.6.2 1.9 0 2.9 0 .4-.6 1-1 1-1 .2-2.1.2-2.9-.4-.8-1-.6-2.7.6-3.5 1-.8 2.4-.6 3.3 0z"/><path class="st3" d="M3.4 2.8c-1-.4-1.9.4-2.3 1.2-.4.8.2 1.9 1 2.3.4.2.8 0 1.2-.2.2 0 .2-.2.2-.4h.4c.6-.4.8-1.2.6-1.9-.1-.4-.5-.8-1.1-1z"/><path class="st4" d="M8.6.7c-.3-.3-.6.4-.9.6v.4c.3.2.5.4.7.6.6 0 .8-.6.8-1 0-.2-.4-.4-.6-.6z"/><path class="st3" d="M22.3 5.7c-.5 0-1 .8-.4 1.2.2 0 .6.2.8-.2 0 .2.2.2.4.2.6-.4 0-1.2-.4-1.5 0 .1-.2.3-.4.3z"/><path class="st4" d="M26.4 3.2c.4 0 1 0 1.2-.4.2-.6-.2-1.7-.8-1.7-.8-.2-1.7.8-1.5 1.7.3.4.7.4 1.1.4z"/><path class="st3" d="M14 5.7c-1.7-.8-3.1.4-4.1 1.7-.4.8-.6 1.5 0 2.3.4.8-.8 1-1.5 1.7-.4.4-.6 1-.8 1.5-.3.6.4 1.3.4 2.1 0 .2.2.4.4.4.4-.2.2-.6.2-.8l-.2-.2c.4-1.2 1-2.3 2.1-2.9 1.5-.6 3.1-1.2 4.6 0l.2-.2c.2.4.8.6 1.2.8.2 0 .2-.2.2-.4l-.2-.2c.8-.2 1.7-.6 2.7-.4.6.2 1 .8 1.7 1 .4.2 1-.4 1-.8.2-1.9-1.9-1.7-3.3-2.1-.8 0-1.7-.6-2.5-1-.4-.4-.8-.8-1-1.5-.3-.4-.7-.8-1.1-1z"/><path class="st3" d="M12.9 15c.5.3 1 .8.8 1.5-.2.4-.6.8-1 .8-1-.2-2.1.2-2.9-.2-.6-.2-.8-1.2-1.2-1.9-.4.6-.6 1.2-.2 1.9.8 1.5 2.5 2.9 4.4 2.1.4-.2.6-.4 1-.6 1.5-1 1.9-2.9 1.7-4.6-.4-1-1.5-1.9-2.5-1.7-.8.4-2.5 1.9-1.7 2.7.4.2 1-.4 1.6 0zM27.2 25.6c0 .2.2.4.2.4.8-.6 1.7-1.5 1.5-2.5-.4-1.2-1.7-1.9-2.7-1.5-.8.6-1.5 2.5 0 2.9.2 0 .2-.8.6-.6.4.2.4.9.4 1.3z"/><path class="st4" d="M32.6 16.9c-1.4-1.4-3.1-2.1-4.8-1.5 2.1.4 3.9 1.7 5 3.5 1.3-.4.5-1.4-.2-2zM41.4 27c0 .2 0 .4.2.4s.2-.4.2-.6l-.2-.2c0 .2-.2.2-.2.4z"/><path class="st3" d="M35.3 35.3c-.3.1-.6.2-.6.4.6.8 1.7-.6 2.3-1 0-.2-.2-.2-.4-.2-.4.2-.8.6-1.3.8z"/><path class="st4" d="M26.6 33.9c-.5-.9-1.9-.4-1.9.4 0 .4.8.2 1.2.2.3-.2.9-.2.7-.6z"/><path class="st3" d="M15 31.2l.2.2c.2-.4.6-.4.8-.6 0-.2 0-.4-.2-.6h-.4c-.2.1-.4.6-.4 1zM33.3 7.3c-.4.7 1 .6 1.2.2.2-.4-.2-.8-.4-1-.2.2-.6.4-.8.8z"/><path class="st4" d="M48.6 28.1c.1-.2 0-.6 0-.8 0-.2-.2-.4-.4-.2-.4.8-.2 1.9-.4 2.7l.2.2c.4-.7.4-1.3.6-1.9zM55.3 38.4c-.1.2-.4.2-.2.4s.2.6.4.6c.6-.4.2-1.5.4-2.1 0-.2-.2-.2-.4-.2-.5.5 0 .9-.2 1.3zM58.2 37.2c.1-.4 0-.6 0-1 0-.2-.2-.4-.4-.2-.4.4-.8.4-1.2.6-.2 0-.2.2-.2.4.2.2.4.6.6.8v.4l.6.6v.4c.4.8 1 1.7 1.9 2.1.2 0 .4-.2.4-.2-1.1-1-2.2-2.5-1.7-3.9zM59.2 36.8c.7 1.5 1.5 2.7 2.9 3.7.6.4 1.5.2 1.2-.4 0-.4-.4-.8-.8-1.2-.2-.4-.4-.6-.6-1-.4-.8-.4-1.9-.8-2.7h-.4c.4-.4.8-.6.6-1.2 0-.2-.2-.2-.4-.2-.6.4-1.2.6-1.7 1.5h-.4c-.2 0-.4.2-.4.4.2.2.6.7.8 1.1z"/><path class="st3" d="M36.6 41.1c-.2.2-.8.2-.6.6.2.2.4.2.6.2l.2-.2c0-.1 0-.4-.2-.6zM32.2 41.1c0-.2 0-.4-.2-.4-.4-.2-.4.2-.6.4v.4c0 .2.2.2.4.2.2-.1.4-.4.4-.6zM16.9 40.1c-1.8.7-3.5 2.3-3.1 4.4.2.4.4.6.6 1 .8 1 1.9 1.9 3.1 1.5 1-.4 2.1-1.7 2.1-2.7l-.2-.3c-.4 1.5-2.1 1.9-3.3 1.5-1-.6-.6-2.1.2-2.9.4-.2.6-.4 1-.6.8-.2 1.7-.6 2.7-.4.6.2.8 1 1.2 1.5.6.4 1 .8 1.5 1.2.4.8.6 1.5.8 2.3.2.8-.2 1.9.2 2.7.6-.6 1.2-1 1.9-1.7 0-.2-.4-.6-.4-.8-.2-3.1-2.5-5.4-5.2-6.6-1.1-.5-2.1-.5-3.1-.1z"/><path class="st4" d="M18.1 43.4c-.2.2-.6 0-.6.4 0 .2.4.2.6.2.2-.2.8-.2.6-.6l-.2-.2c-.2 0-.4.2-.4.2zM22.1 46.3c.2.6.2 1.5.6 2.1.4-1.5.2-3.5-1-4.6-.7.9.2 1.7.4 2.5z"/><path class="st3" d="M7.7 44c1.1-1.1 2.5-2.1 4.1-1.9.2.2.4.2.6.4.2 0 .6 0 .6-.2s-.4-.2-.4-.4v-.4c-.8-1.5-2.5-1.5-3.9-1-2.5 1-4.4 3.7-3.5 6.4.2.6.6 1.2 1.5 1.7 1.2.4 2.5 0 3.1-1V47c-.4-.6-1-1-1.7-.8-.4.2-.4.8-.8 1.2h-.4c-.2-.2-.4-.6-.4-.8.2-.4.6-1 .8-1.5 0-.4 0-.6.4-1.1z"/><path class="st4" d="M9.2 44c-.4.1-.4.2-.6.4-.2.2.2.4.2.4.8-.6 1.7-.8 2.7-1.2-.8-.6-1.5.2-2.3.4zM13.1 52.3c.4 0 .4-.4.6-.4.2 0 .4 0 .4.2.4-.4.2-1-.2-1.2-.6-.2-1.5 0-1.9.6v.4c.3.4.7.4 1.1.4z"/><path class="st3" d="M23.1 51.1l-.2-.2-.6.6c0 .2 0 .4.2.4.2-.2.6-.4.6-.8zM21.9 53.4c.3-.3.6-.8.2-1.2-1.9 2.7-2.5 6.2-2.7 9.5 0 .2-.2.2-.2.4s.4.2.4.2c.4-1.9.4-3.7.8-5.4.4-.8.6-1.5 1-2.3V54c.2-.2.2-.4.5-.6zM26.2 51.5c1.1-.5 1.9-1.7 2.9-2.5.4-.2.6-.4 1-.6h.4c.2-.2.6-.4.8-.6h.4c.6-.6 1.5-.6 2.3-.8.2 0 .2-.2.4-.4-4.6-.6-8.9 2.3-11 6.4v.4c-.2.2-.4.6-.6.8v.4c0 .2-.4.2-.4.4s.2.2.4.4c1.3-1.2 1.8-3.1 3.4-3.9z"/><path class="st0" d="M21.9 61c0 .2 0 .4.2.4s.2-.4.2-.6l-.2-.2c0 .2-.2.2-.2.4zM22.3 57.3c.2-.2 0-.4-.2-.4s-.4.2-.2.4h.4zM22.5 58.1l-.2.2.2.2v-.4z"/><path class="st3" d="M53.2 52.5c1.4-.9 3.1-.4 4.8-.2.2 0 .4-.2.6-.2.4.2.2 1 .2 1.2-.6.6-1.7 1.2-1.5 2.1.4.8 1.5 1 2.3.8 1.7-.8 2.7-2.9 2.1-4.6-.6-1.7-2.3-2.5-3.9-2.7-2.7-.6-5.4.6-7.1 2.9-.2.6.6 1 .8 1.7.6-.3 1.1-.5 1.7-1z"/><path class="st4" d="M52.8 54.8c.8-.8 1.5-1.5 2.5-1.9-1.2-.6-2.7.8-3.5 1.7 0 .2-.2 1 .2 1 .1.1.6-.6.8-.8zM55.5 58.8c-.2.2-.2.2-.2.4l.2.2c.4-.2.6-.4.8-.8 0-.2 0-.4-.2-.4-.4-.1-.4.4-.6.6zM43.6 57.5c-.3.3-.4.4-.4.6 0 .2 0 .4.2.4.4-.2.8-.8 1-1.2 0-.2 0-.4-.2-.4l-.6.6z"/><path class="st4" d="M54 62.3c-1 4.7 3.1 9.3 7.7 9.8.2 0 .2-.2.2-.4.2 0 .4 0 .4.2l.2-.2c.4 0 0 .6.4.6 1.5 0 2.7 0 3.9.8.6.4 1.2 1.2 1.7 1.9.2.6 0 1.2.4 1.7 1-1 2.3-1.5 3.3-2.5.6-.4 1-.6 1.7-1 .4-.2.6-.4 1-.6h.4c.4-.6 1.2-.4 1.9-1-.4-.4-1-.4-1.5-.4-1-.4-1.9-1.2-2.7-1.9-.4-.4-.4-1-.8-1.7-.2-.4 0-.8 0-1.2.2-.4.2-.8.6-1.2 0-.2 0-.4-.2-.6h-.4c-.8-.4-1.5-1.2-2.1-2.1-.6-1.2-.4-2.7-.8-3.9-.4.6-.6 1.4-.8 2.1-.4.6.2 1.2-.4 1.9.4.2 0 .6.2.8.8 1.2 1.7 2.5 2.9 2.9-.6 0-1.2-.2-1.9-.4-1-.4-1.7-1.5-2.3-2.3-.2 0-.2.2-.2.4.8 1 1.5 2.3 2.7 2.9 0 0 .2-.2.4-.2l.2.2c-2.9 0-4.6-2.9-5.2-5.4-.2-1.2-.2-2.3.2-3.5.2-.8 1.2-1.2.8-2.1-.4-.8-.6-2.1-.2-3.1.2-.4.4-.6.6-1 .4-.6 1-1 1.7-1.5.4-.2.8-.2 1-.6 0-.2-.2-.4-.4-.4-1.9 0-3.3.8-4.4 2.3-.8 1.2-1 2.5-.8 3.9.2.6.6.8 1.2 1-.2.4-.2.6-.6.6-1 0-1-1-1.5-1.7-.6.6-1.7 1.2-2.1 2.1 0 .4.8.8.6 1.5-.2.2-.4.6-.6.8-.2 1-.2 2.1-.4 3.1l.2.2-.2.2c.4.6.2 1.2.4 1.9.2.4.6 1 .8 1.5.8 1.2 2.1 1.9 3.3 2.3.4.2.8 0 1.2 0 .6 0 1.5-.4 2.1-.2.6.2 1.2.2 1.5.8.2 1.2.2 2.5-1.2 2.9-.8.2-1.5.4-2.1-.4h-.4c-.8-.6-.8-2.1 0-2.7.2-.2 0-.4-.2-.4-2.5.8-4.8-.6-6-2.7-1.2-2.5-.8-5-.2-7.5 0-.2-.2-.4-.4-.2-.4.4-.8 0-1.5.2-.4.2 0 1-.2 1.5-1 1.7-1.5 3.5-1.2 5.4.6 2.9 3.3 4.8 5.8 5.6-2.5.2-4.6-1.2-6-3.1-1.9-2.5-1.5-5.8-.4-8.5l-.2-.2c-.9.5-.9 1.8-1.1 2.8z"/><path class="st4" d="M66.5 53.8c.1.6.2 1.2.6 1.7h.4c.2 0 .4-.2.4-.4 0-1.9.4-3.7 2.3-4.8.2-.2 0-.4-.2-.4-1.9.4-3.8 1.8-3.5 3.9z"/><path class="st3" d="M71.2 49.6c.6.3 1.2.4 1.7 1 0 .2 0 .2.2.4 0 .2 0 .4-.2.4-1 .2-2.3-.8-2.9.4-.4 1-.4 2.5.8 2.5.8.2 1.7-.2 2.5-.6.8-.6 1.5-1.2 1.9-2.3.4-1.9-.2-3.9-1.7-4.8-1.7-1-3.7 0-4.8 1.5 1.1.5 1.7 1.1 2.5 1.5z"/><path class="st4" d="M66.2 59.4c-.1.2.2.4.2.4-.2 1-.4 2.3.2 3.3.6-.6 0-1 0-1.7.2-1 .6-2.1.6-3.1l-.2-.2c-.5.3-.5.7-.8 1.3zM69.4 57.1c0 .2 0 .4.2.4.4 0 .8-.6.4-1-.2.4-.6 0-.6.6z"/><path class="st3" d="M66.5 69.8c-.4.8.4 1.5 1 1.7.4 0 .6-.4.8-.8.2-.4 0-1.2-.4-1.5-.4-.3-1.2.1-1.4.6zM65.6 75.2c.6.9 1 1.7 1.5 2.7 0-.4.6 0 .6-.4.2-1.2-.4-2.1-1-3.1-.8-1.2-2.5-1.7-3.9-1 1 .3 2 .5 2.8 1.8zM63.8 78.1c.4.4.6.8.6 1.5 0 .2.2.4.4.2.4-.4 1.5-.6 1-1.5-.4-.8-1-1.9-1.7-2.7-1-1-2.7-1.2-3.9-.6-.6.4-1.2 1.2-1.5 2.1-.2 1 0 2.1.8 2.7.2.2.4-.4.6-.4 1 .2 1.9 0 2.5-.6 0-.4.2-1-.2-1.2h-.6v-.8c.4-.2.8-.2 1.2 0 .5.2.3.8.8 1.3z"/><path class="st4" d="M60.4 82.2c-.1.2.2.4.2.4.6-.4 1.5-1.5.8-2.3-.5.5-.5 1.3-1 1.9zM63.8 80.1c0-.4.2-1-.2-1-.8 0-.6.8-.8 1.7 0 .2.2.4.4.2.1-.2.6-.5.6-.9z"/><path class="st0" d="M72.9 76l.2-.2-.2-.2v.4z"/><path class="st3" d="M75.8 65.4c1.5-.7 3.1-.6 4.6 0 1.2.4 2.3 1.9 2.5 3.5 0 .2.4.6.6.6.6-.2 1.2-.2 1.9-.6l.2.2c.2-.4.8-.2.8-.4-.4-.4-1-.6-1.7-.8-.8-.6-.8-1.9-1.7-2.5-.2 0-.4 0-.4-.2.2-1.7-1.2-2.3-2.5-2.7-1-.2-1.9 0-2.9.2-1.2.4-2.1 1.2-2.9 2.1-.4.6-.8 1.2-1 1.9-.4 1.6 1.2 3.3 2.7 3.3.4 0 1.2.2 1.7-.2.4-.4.6-1 .4-1.5-.4-.6-1-1.2-1.7-.8-.4.4-.8.2-1.2.6-.2-.2-.8-.2-.6-.6.4-.8.4-1.7 1.2-2.1z"/><path class="st4" d="M78.5 66.2c1.3 0 2.3 1.7 2.3 3.1 0 .2.2.4.4.2.8-1.5-.6-3.3-1.9-3.7-1-.4-2.7-.8-3.3.4 0 .2.6.2.8.2l.2-.2.2.2c.5-.4.9-.2 1.3-.2z"/><path class="st4" d="M79.1 68.7c.2.6-.4 1.5 0 2.1 1.2-1 1-2.9-.2-3.7-.2 0-.4 0-.4.2.6.4.4.8.6 1.4z"/><path class="st3" d="M85.9 66c-.2 0-.4 0-.4-.2-.2-.6-.2-1.5-.8-1.9-.4.4-.4 1-.4 1.7.2 1 1.2 1.7 2.3 2.1.6.2 1.7 0 2.1-.6 0-.2 0-.4-.2-.4-.8 0-1.5 0-2.1-.6 0-.1-.2-.1-.5-.1zM88.6 64.6c.3.3.4.6.8 1 .2.2.4 0 .4-.2.2.4-.2 1 .2 1.5.6-.6 1.5-1.5 1.2-2.5-.2-.6-.4-1.2-1-1.7-.6-.2-1.5-.4-2.1-.2-.6.2-1.7 1.5-1 2.1.5.2 1.1-.4 1.5 0zM94 64.2c.1.2-.2.8.2.8.6-.2 1.5-.6 1-1.4-.4-.6-1-1.2-1.7-1.7-.3.6.3 1.4.5 2.3zM97.2 51.7c.2.6 1 1.2.8 1.9-.4.4-1.9.6-1.5 1.5 1 1.5 3.1.4 3.5-.8.6-1.2 0-2.7-.6-3.9-1-1.7-3.7-2.5-5.2-.8v.4c.4.8.8.6 1.7.6.6.1 1 .5 1.3 1.1zM95.5 41.6c.2-.6.6-1.2 0-1.7-.6-.2-1.5.2-1.7.8-.2.6-.6 1.5.2 1.9h.4c.5-.2.9-.4 1.1-1z"/><path class="st4" d="M78.9 40.7c-1.1-1.1-2.3-3.5-4.1-2.7.8.4 1.5 1 2.1 1.9.6.8 1.2 2.7 2.5 1.9.2 0 .2-.2.2-.4l-.7-.7zM84.7 46.1c.4.8.6 1.9 1.2 2.7 1-1.5-.6-3.3-2.1-3.9-.2 0-.4 0-.4.2.3.4 1.1.6 1.3 1zM78.1 57.9l-.2.2c.2.4.6.2 1 .2.2 0 .2-.4.2-.6-.2-.4-.6-.2-.8-.2 0 0-.2.2-.2.4zM81.6 34.1c-.3.3-.2.6-.2 1 0 .2.2.4.4.2s.6-.4.8-.6c0-.2.2-.6-.2-.8-.2 0-.6 0-.8.2z"/></svg>